# xmcd
#
# Track frame offsets: 
#        150
#        11608
#        21577
#        29986
#        37621
#        47832
#        59908
#        69651
#        80469
#        91515
#        102055
#        110882
#        121400
#        130715
#        143254
#        155279
#        169287
#        180890
#        190107
#        200297
#
# Disc length: 2851 seconds
#
# Revision: 1
# Processed by: cddbd v1.5.2PL0 Copyright (c) Steve Scherf et al.
# Submitted via: ExactAudioCopyFreeDBPlugin 1.0
#
DISCID=080b2114
DTITLE=Johnny Cash - I walk the line [CD 2)
DYEAR=1958
DGENRE=Country
TTITLE0=Big River
TTITLE1=Ballad Of A Teenage Queen
TTITLE2=Guess Things Happen That Way
TTITLE3=Come In Stranger
TTITLE4=The Ways Of A Woman In Love
TTITLE5=You're The Nearest Thing To Heaven
TTITLE6=It's Just About Time
TTITLE7=I Just Tought You'd Like To know
TTITLE8=Run Softly, Blue River
TTITLE9=Frankie And Johnny
TTITLE10=That's All Over
TTITLE11=The Troubadour
TTITLE12=One More Ride
TTITLE13=That's Enough
TTITLE14=I Still Miss Someone
TTITLE15=Don't Take Your Guns To Town
TTITLE16=I'd Rather Die Young
TTITLE17=Pickin' Time
TTITLE18=Shepherd Of My Heart
TTITLE19=Supper Time
EXTD=
EXTT0=
EXTT1=
EXTT2=
EXTT3=
EXTT4=
EXTT5=
EXTT6=
EXTT7=
EXTT8=
EXTT9=
EXTT10=
EXTT11=
EXTT12=
EXTT13=
EXTT14=
EXTT15=
EXTT16=
EXTT17=
EXTT18=
EXTT19=
PLAYORDER=
